<?xml version="1.0" standalone="no"?>
<!DOCTYPE svg PUBLIC "-//W3C//DTD SVG 20010904//EN"
 "http://www.w3.org/TR/2001/REC-SVG-20010904/DTD/svg10.dtd">
<svg version="1.0" xmlns="http://www.w3.org/2000/svg"
 width="256.000000pt" height="256.000000pt" viewBox="0 0 256.000000 256.000000"
 preserveAspectRatio="xMidYMid meet">
<metadata>
Created by potrace 1.14, written by Peter Selinger 2001-2017
</metadata>
<g transform="translate(0.000000,256.000000) scale(0.100000,-0.100000)"
fill="#000000" stroke="none">
<path d="M1109 2506 c-2 -2 -42 -6 -89 -10 -47 -3 -96 -8 -110 -11 -13 -2 -42
-7 -65 -10 -175 -25 -331 -100 -440 -209 -137 -137 -199 -309 -231 -636 -5
-59 -6 -459 0 -525 6 -69 18 -169 23 -190 14 -57 22 -119 16 -128 -3 -6 -1 -7
4 -4 6 4 16 -13 23 -41 16 -57 62 -151 104 -212 17 -25 30 -49 28 -53 -1 -5 2
-6 7 -3 5 4 18 -4 28 -16 10 -13 41 -39 68 -57 28 -19 53 -40 57 -45 4 -6 8
-8 8 -4 0 4 17 -1 37 -12 44 -22 92 -42 112 -46 52 -10 64 -16 52 -23 -8 -5
-9 -11 -3 -15 5 -3 12 1 15 8 7 17 62 7 62 -11 0 -6 4 -15 8 -20 5 -4 7 -1 5
7 -2 12 5 14 32 12 62 -5 75 -9 75 -20 0 -6 4 -14 8 -19 5 -4 7 -1 5 7 -2 12
7 15 42 15 25 0 49 -2 54 -4 5 -2 43 -4 85 -4 42 -1 79 -5 82 -10 4 -5 16 -4
28 2 12 7 21 8 21 2 0 -6 11 -6 30 -1 18 5 32 5 35 -1 4 -5 11 -9 16 -9 6 0 7
6 3 13 -5 8 -2 8 9 -2 9 -7 17 -10 17 -5 0 5 50 9 110 9 60 0 110 2 110 5 0 3
21 5 48 5 26 0 51 4 55 10 6 7 10 6 14 -2 2 -7 9 -13 14 -13 6 0 7 5 4 10 -3
6 2 10 12 11 10 0 29 3 43 5 14 3 37 6 53 7 15 1 27 5 27 9 0 6 100 33 113 30
4 -1 7 3 7 9 0 5 5 7 11 3 6 -3 14 -2 18 3 3 6 31 23 61 38 30 15 70 40 89 56
19 15 39 25 44 22 6 -3 7 -1 4 4 -8 13 27 46 37 36 4 -4 4 1 0 12 -6 15 -4 17
10 12 9 -4 15 -3 12 1 -5 9 40 82 58 94 6 4 8 8 3 8 -4 0 1 17 12 38 19 38 50
122 56 155 3 10 7 28 11 40 4 12 8 33 10 47 1 14 3 27 5 30 5 10 7 26 8 63 1
25 5 36 12 31 8 -5 8 -1 0 13 -6 11 -8 22 -6 25 15 15 23 451 11 583 -30 328
-95 505 -236 645 -83 83 -138 116 -264 160 -88 31 -93 32 -246 57 -85 13 -579
30 -591 19z"/>
<path d="M435 360 c3 -5 8 -10 11 -10 2 0 4 5 4 10 0 6 -5 10 -11 10 -5 0 -7
-4 -4 -10z"/>
<path d="M2040 320 c-9 -6 -10 -10 -3 -10 6 0 15 5 18 10 8 12 4 12 -15 0z"/>
<path d="M530 281 c0 -6 4 -13 10 -16 6 -3 7 1 4 9 -7 18 -14 21 -14 7z"/>
<path d="M1930 259 c0 -5 5 -7 10 -4 6 3 10 8 10 11 0 2 -4 4 -10 4 -5 0 -10
-5 -10 -11z"/>
<path d="M890 219 c0 -5 5 -7 10 -4 6 3 10 8 10 11 0 2 -4 4 -10 4 -5 0 -10
-5 -10 -11z"/>
<path d="M1770 220 c0 -5 5 -10 11 -10 5 0 7 5 4 10 -3 6 -8 10 -11 10 -2 0
-4 -4 -4 -10z"/>
<path d="M1910 220 c0 -5 5 -10 11 -10 5 0 7 5 4 10 -3 6 -8 10 -11 10 -2 0
-4 -4 -4 -10z"/>
<path d="M1455 211 c-3 -5 -2 -12 3 -15 5 -3 9 1 9 9 0 17 -3 19 -12 6z"/>
<path d="M1510 206 c0 -2 7 -7 16 -10 8 -3 12 -2 9 4 -6 10 -25 14 -25 6z"/>
<path d="M1710 200 c0 -5 5 -10 11 -10 5 0 7 5 4 10 -3 6 -8 10 -11 10 -2 0
-4 -4 -4 -10z"/>
<path d="M1333 185 c0 -8 4 -12 9 -9 5 3 6 10 3 15 -9 13 -12 11 -12 -6z"/>
<path d="M1054 182 c4 -3 14 -7 22 -8 9 -1 13 0 10 4 -4 3 -14 7 -22 8 -9 1
-13 0 -10 -4z"/>
<path d="M1215 180 c3 -5 8 -10 11 -10 2 0 4 5 4 10 0 6 -5 10 -11 10 -5 0 -7
-4 -4 -10z"/>
<path d="M1570 179 c0 -5 5 -7 10 -4 6 3 10 8 10 11 0 2 -4 4 -10 4 -5 0 -10
-5 -10 -11z"/>
<path d="M1653 170 c-1 -11 2 -22 6 -24 4 -3 7 4 6 14 -2 27 -10 33 -12 10z"/>
<path d="M1470 176 c0 -2 8 -10 18 -17 15 -13 16 -12 3 4 -13 16 -21 21 -21
13z"/>
</g>
</svg>
